<mxfile host="app.diagrams.net" modified="2022-09-13T09:00:12.971Z" agent="5.0 (Windows NT 10.0; Win64; x64) AppleWebKit/537.36 (KHTML, like Gecko) Chrome/104.0.0.0 Safari/537.36" etag="6F8Aj1u7u90XmhxppAya" version="20.2.3" type="github">
  <diagram id="kGdkJlDR5qDFUICEhj1A" name="페이지-1">
    <mxGraphModel dx="460" dy="780" grid="1" gridSize="10" guides="1" tooltips="1" connect="1" arrows="1" fold="1" page="1" pageScale="1" pageWidth="827" pageHeight="1169" math="0" shadow="0">
      <root>
        <mxCell id="0" />
        <mxCell id="1" parent="0" />
        <mxCell id="GUJtZesUquk5DCz48SAX-1" value="" style="rounded=0;whiteSpace=wrap;html=1;fillColor=#f8cecc;strokeColor=#b85450;" vertex="1" parent="1">
          <mxGeometry x="120" y="480" width="240" height="90" as="geometry" />
        </mxCell>
        <mxCell id="GUJtZesUquk5DCz48SAX-7" style="edgeStyle=orthogonalEdgeStyle;rounded=0;orthogonalLoop=1;jettySize=auto;html=1;exitX=0.5;exitY=1;exitDx=0;exitDy=0;endArrow=none;endFill=0;" edge="1" parent="1" source="GUJtZesUquk5DCz48SAX-2">
          <mxGeometry relative="1" as="geometry">
            <mxPoint x="240" y="610" as="targetPoint" />
          </mxGeometry>
        </mxCell>
        <mxCell id="GUJtZesUquk5DCz48SAX-2" value="Nodeport&lt;br&gt;3000" style="rounded=0;whiteSpace=wrap;html=1;fillColor=#fff2cc;strokeColor=#d6b656;" vertex="1" parent="1">
          <mxGeometry x="180" y="510" width="120" height="60" as="geometry" />
        </mxCell>
        <mxCell id="GUJtZesUquk5DCz48SAX-6" style="edgeStyle=orthogonalEdgeStyle;rounded=0;orthogonalLoop=1;jettySize=auto;html=1;exitX=0.5;exitY=1;exitDx=0;exitDy=0;endArrow=none;endFill=0;" edge="1" parent="1" source="GUJtZesUquk5DCz48SAX-3" target="GUJtZesUquk5DCz48SAX-2">
          <mxGeometry relative="1" as="geometry" />
        </mxCell>
        <mxCell id="GUJtZesUquk5DCz48SAX-3" value="Service&lt;br&gt;8899" style="rounded=0;whiteSpace=wrap;html=1;fillColor=#fff2cc;strokeColor=#d6b656;" vertex="1" parent="1">
          <mxGeometry x="180" y="390" width="120" height="60" as="geometry" />
        </mxCell>
        <mxCell id="GUJtZesUquk5DCz48SAX-5" style="edgeStyle=orthogonalEdgeStyle;rounded=0;orthogonalLoop=1;jettySize=auto;html=1;exitX=0.5;exitY=1;exitDx=0;exitDy=0;endArrow=none;endFill=0;" edge="1" parent="1" source="GUJtZesUquk5DCz48SAX-4" target="GUJtZesUquk5DCz48SAX-3">
          <mxGeometry relative="1" as="geometry" />
        </mxCell>
        <mxCell id="GUJtZesUquk5DCz48SAX-4" value="Pod&lt;br&gt;8000" style="rounded=0;whiteSpace=wrap;html=1;fillColor=#fff2cc;strokeColor=#d6b656;" vertex="1" parent="1">
          <mxGeometry x="180" y="300" width="120" height="60" as="geometry" />
        </mxCell>
        <mxCell id="GUJtZesUquk5DCz48SAX-8" value="Kube Node" style="text;html=1;align=center;verticalAlign=middle;resizable=0;points=[];autosize=1;strokeColor=none;fillColor=none;fontSize=17;fontColor=#000000;fontStyle=1;labelBorderColor=none;" vertex="1" parent="1">
          <mxGeometry x="250" y="480" width="110" height="30" as="geometry" />
        </mxCell>
      </root>
    </mxGraphModel>
  </diagram>
</mxfile>
